<svg width="12" height="18" viewBox="0 0 12 18" fill="none" xmlns="http://www.w3.org/2000/svg">
<path fill-rule="evenodd" clip-rule="evenodd" d="M4.61373 1.47205C5.51625 0.56953 6.74033 0.0625 8.01669 0.0625H10.4917C10.8714 0.0625 11.1792 0.370304 11.1792 0.75V4.05C11.1792 4.4297 10.8714 4.7375 10.4917 4.7375H8.01669C7.98022 4.7375 7.94525 4.75199 7.91946 4.77777C7.89367 4.80356 7.87919 4.83853 7.87919 4.875V6.6625H10.4917C10.7034 6.6625 10.9033 6.76004 11.0336 6.9269C11.1639 7.09377 11.21 7.31136 11.1587 7.51674L10.3337 10.8167C10.2571 11.1228 9.98216 11.3375 9.66669 11.3375H7.87919V17.25C7.87919 17.6297 7.57138 17.9375 7.19169 17.9375H3.89169C3.51199 17.9375 3.20419 17.6297 3.20419 17.25V11.3375H1.41669C1.03699 11.3375 0.729187 11.0297 0.729187 10.65V7.35C0.729187 6.9703 1.03699 6.6625 1.41669 6.6625H3.20419V4.875C3.20419 3.59865 3.71122 2.37457 4.61373 1.47205ZM8.01669 1.4375C7.105 1.4375 6.23066 1.79966 5.58601 2.44432C4.94135 3.08898 4.57919 3.96332 4.57919 4.875V7.35C4.57919 7.7297 4.27138 8.0375 3.89169 8.0375H2.10419V9.9625H3.89169C4.27138 9.9625 4.57919 10.2703 4.57919 10.65V16.5625H6.50419V10.65C6.50419 10.2703 6.81199 9.9625 7.19169 9.9625H9.1299L9.61115 8.0375H7.19169C6.81199 8.0375 6.50419 7.7297 6.50419 7.35V4.875C6.50419 4.47386 6.66354 4.08915 6.94719 3.8055C7.23084 3.52185 7.61555 3.3625 8.01669 3.3625H9.80419V1.4375H8.01669Z" fill="black"/>
</svg>
