<svg width="20" height="16" viewBox="0 0 20 16" fill="none" xmlns="http://www.w3.org/2000/svg">
<path d="M4.36762 3.26968C4.15456 3.15496 3.89688 3.16069 3.68914 3.28477C3.48139 3.40886 3.35418 3.63302 3.35418 3.875V12.5833C3.35418 12.963 3.66198 13.2708 4.04168 13.2708C4.42137 13.2708 4.72918 12.963 4.72918 12.5833V5.02603L9.67407 7.68866C9.87755 7.79823 10.1225 7.79823 10.326 7.68866L15.2708 5.02603V12.5833C15.2708 12.963 15.5786 13.2708 15.9583 13.2708C16.338 13.2708 16.6458 12.963 16.6458 12.5833V3.875C16.6458 3.63302 16.5186 3.40886 16.3109 3.28477C16.1031 3.16069 15.8455 3.15496 15.6324 3.26968L10 6.3025L4.36762 3.26968Z" fill="black"/>
<path fill-rule="evenodd" clip-rule="evenodd" d="M14.8681 0.411685C11.6292 0.12209 8.37088 0.12209 5.13199 0.411685L3.74109 0.536048C2.24911 0.669448 1.04362 1.80925 0.826932 3.29143C0.370433 6.41388 0.370433 9.58612 0.826932 12.7086C1.04362 14.1908 2.24911 15.3306 3.74109 15.464L5.13199 15.5883C8.37088 15.8779 11.6292 15.8779 14.8681 15.5883L16.259 15.464C17.7509 15.3306 18.9564 14.1908 19.1731 12.7086C19.6296 9.58612 19.6296 6.41388 19.1731 3.29143C18.9564 1.80925 17.7509 0.669448 16.259 0.536048L14.8681 0.411685ZM5.25444 1.78122C8.41186 1.49891 11.5882 1.49891 14.7456 1.78122L16.1365 1.90558C16.9946 1.98231 17.6879 2.63786 17.8126 3.49033C18.2498 6.48088 18.2498 9.51912 17.8126 12.5097C17.6879 13.3621 16.9946 14.0177 16.1365 14.0944L14.7456 14.2188C11.5882 14.5011 8.41186 14.5011 5.25444 14.2188L3.86354 14.0944C3.00543 14.0177 2.3121 13.3621 2.18747 12.5097C1.75025 9.51912 1.75025 6.48088 2.18747 3.49033C2.3121 2.63786 3.00543 1.98231 3.86354 1.90558L5.25444 1.78122Z" fill="black"/>
</svg>
