<svg width="18" height="18" viewBox="0 0 18 18" fill="none" xmlns="http://www.w3.org/2000/svg">
<path d="M12.6667 4.41667C12.6667 3.91041 13.0771 3.5 13.5834 3.5C14.0896 3.5 14.5 3.91041 14.5 4.41667C14.5 4.92293 14.0896 5.33333 13.5834 5.33333C13.0771 5.33333 12.6667 4.92293 12.6667 4.41667Z" fill="black"/>
<path fill-rule="evenodd" clip-rule="evenodd" d="M9.00003 4.64583C6.59529 4.64583 4.64586 6.59526 4.64586 9C4.64586 11.4047 6.59529 13.3542 9.00003 13.3542C11.4048 13.3542 13.3542 11.4047 13.3542 9C13.3542 6.59526 11.4048 4.64583 9.00003 4.64583ZM6.02086 9C6.02086 7.35465 7.35468 6.02083 9.00003 6.02083C10.6454 6.02083 11.9792 7.35465 11.9792 9C11.9792 10.6454 10.6454 11.9792 9.00003 11.9792C7.35468 11.9792 6.02086 10.6454 6.02086 9Z" fill="black"/>
<path fill-rule="evenodd" clip-rule="evenodd" d="M13.8201 0.596932C10.6424 0.241778 7.35767 0.241778 4.17998 0.596932C2.3356 0.803069 0.846623 2.256 0.629782 4.10998C0.249789 7.35892 0.249789 10.6411 0.629782 13.89C0.846623 15.744 2.3356 17.1969 4.17998 17.4031C7.35768 17.7582 10.6424 17.7582 13.8201 17.4031C15.6645 17.1969 17.1535 15.744 17.3703 13.89C17.7503 10.6411 17.7503 7.35892 17.3703 4.10998C17.1535 2.256 15.6645 0.803069 13.8201 0.596932ZM4.33271 1.96342C7.4089 1.61961 10.5912 1.61961 13.6674 1.96342C14.8866 2.09969 15.8633 3.06184 16.0046 4.26971C16.3722 7.41253 16.3722 10.5875 16.0046 13.7303C15.8633 14.9382 14.8866 15.9003 13.6674 16.0366C10.5912 16.3804 7.4089 16.3804 4.33271 16.0366C3.11344 15.9003 2.13674 14.9382 1.99547 13.7303C1.62789 10.5875 1.62789 7.41253 1.99547 4.26971C2.13674 3.06184 3.11344 2.09969 4.33271 1.96342Z" fill="black"/>
</svg>
