<svg width="20" height="20" viewBox="0 0 20 20" fill="none" xmlns="http://www.w3.org/2000/svg">
<path d="M7.14542 5.57237C7.31314 5.57687 7.49907 5.58594 7.67598 5.97862C7.79329 6.24003 7.9909 6.72128 8.15188 7.11331C8.27714 7.41837 8.38022 7.6694 8.40602 7.72078C8.46496 7.83811 8.50124 7.9735 8.42416 8.13144C8.41507 8.15007 8.40648 8.16789 8.39822 8.18504C8.33638 8.31337 8.29238 8.4047 8.18839 8.52412C8.14563 8.5732 8.10109 8.62702 8.05671 8.68064C7.97867 8.77496 7.90113 8.86866 7.83466 8.93486C7.71678 9.05211 7.5943 9.17859 7.73032 9.41326C7.86643 9.64792 8.34256 10.4197 9.04542 11.0426C9.80106 11.7153 10.4581 11.9988 10.7903 12.1421C10.8548 12.1699 10.907 12.1925 10.9453 12.2116C11.1812 12.3289 11.3217 12.3108 11.4578 12.1529C11.5939 11.9949 12.0473 11.4668 12.206 11.2321C12.3602 10.9975 12.5189 11.0336 12.7366 11.1148C12.9542 11.196 14.115 11.7647 14.3508 11.882C14.3974 11.9052 14.441 11.9261 14.4814 11.9455C14.6455 12.0242 14.757 12.0777 14.8043 12.1574C14.8632 12.2567 14.8632 12.7261 14.6683 13.2767C14.4688 13.8273 13.5074 14.3554 13.0721 14.396C13.0309 14.3999 12.9898 14.4048 12.9476 14.41C12.5487 14.4582 12.0423 14.5195 10.238 13.8093C8.01469 12.935 6.54709 10.7658 6.25037 10.3272C6.22695 10.2926 6.21082 10.2688 6.2022 10.2572L6.19718 10.2505C6.06218 10.0699 5.23631 8.96479 5.23631 7.82462C5.23631 6.73376 5.77368 6.16583 6.01879 5.90679C6.03432 5.89037 6.04868 5.8752 6.06166 5.86121C6.27928 5.62654 6.53327 5.56788 6.69195 5.56788C6.85071 5.56788 7.0094 5.56788 7.14542 5.57237Z" fill="black"/>
<path fill-rule="evenodd" clip-rule="evenodd" d="M1.00213 18.5538C0.927136 18.8261 1.17508 19.0773 1.44829 19.006L5.67169 17.9028C7.00485 18.625 8.5058 19.0086 10.034 19.0086H10.0385C15.0673 19.0086 19.1666 14.933 19.1666 9.92325C19.1666 7.49508 18.2188 5.21129 16.4957 3.49618C14.7726 1.78115 12.4826 0.833344 10.0384 0.833344C5.0097 0.833344 0.910401 4.90889 0.910401 9.91875C0.90983 11.5125 1.3305 13.0784 2.13019 14.4591L1.00213 18.5538ZM3.45581 14.8243C3.55373 14.4689 3.50481 14.089 3.32004 13.77C2.64157 12.5985 2.28492 11.27 2.2854 9.91875C2.2854 5.6748 5.76256 2.20834 10.0384 2.20834C12.1192 2.20834 14.0604 3.01225 15.5257 4.47073C16.9894 5.9276 17.7916 7.86061 17.7916 9.92325C17.7916 14.1671 14.3145 17.6336 10.0385 17.6336H10.034C8.73553 17.6336 7.45955 17.3075 6.32658 16.6938C6.01993 16.5277 5.66162 16.4843 5.3242 16.5725L2.792 17.2339L3.45581 14.8243Z" fill="black"/>
</svg>
