<svg width="560" height="52" viewBox="0 0 560 52" fill="none" xmlns="http://www.w3.org/2000/svg">
<mask id="path-1-outside-1_473_192" maskUnits="userSpaceOnUse" x="0.895508" y="0.439941" width="560" height="51" fill="black">
<rect fill="white" x="0.895508" y="0.439941" width="560" height="51"/>
<path d="M8.25551 47.9999V12.4899C8.25551 10.4799 7.96517 8.87194 7.38451 7.66594C6.84851 6.41527 5.57551 5.78994 3.56551 5.78994H2.89551V3.77994H21.3205C22.5265 3.77994 23.9112 3.86927 25.4745 4.04794C27.0378 4.18194 28.6235 4.49461 30.2315 4.98594C31.8842 5.47727 33.4028 6.21427 34.7875 7.19694C36.1722 8.17961 37.2888 9.49727 38.1375 11.1499C38.9862 12.7579 39.4105 14.7903 39.4105 17.2469C39.4105 19.5696 38.9862 21.5126 38.1375 23.0759C37.2888 24.5946 36.1945 25.8229 34.8545 26.7609C33.5592 27.6989 32.1745 28.4136 30.7005 28.9049C29.2265 29.3963 27.8195 29.7313 26.4795 29.9099C25.1842 30.0439 24.1345 30.1109 23.3305 30.1109H16.9655V47.9999H8.25551ZM16.9655 27.4309H20.9855C22.1468 27.4309 23.2635 27.2746 24.3355 26.9619C25.4075 26.6493 26.3678 26.0909 27.2165 25.2869C28.0652 24.4829 28.7352 23.4109 29.2265 22.0709C29.7625 20.6863 30.0305 18.9666 30.0305 16.9119C30.0305 14.8573 29.7625 13.1599 29.2265 11.8199C28.7352 10.4353 28.0652 9.36327 27.2165 8.60394C26.4125 7.79994 25.4968 7.24161 24.4695 6.92894C23.4422 6.61627 22.3925 6.45994 21.3205 6.45994C20.8292 6.45994 20.2262 6.48227 19.5115 6.52694C18.8415 6.57161 17.9928 6.70561 16.9655 6.92894V27.4309Z"/>
<path d="M80.9971 48.2679C79.5231 48.2679 77.9597 48.0893 76.3071 47.7319C74.6991 47.3299 73.1357 46.5036 71.6171 45.2529C70.1431 44.0023 68.8701 42.1039 67.7981 39.5579L66.2571 35.8059H48.4351L42.9411 47.9999H39.4571L59.2221 3.77994H62.2371L77.2451 39.5579C78.0491 41.5233 79.0318 43.0866 80.1931 44.2479C81.3544 45.4093 82.6944 46.0793 84.2131 46.2579V47.9329C83.8558 48.0223 83.3421 48.0893 82.6721 48.1339C82.0468 48.2233 81.4884 48.2679 80.9971 48.2679ZM49.8421 32.7909H64.9841L57.6141 15.3039L49.8421 32.7909Z"/>
<path d="M96.6646 47.9999V6.79494H91.9076C89.5403 6.79494 87.6643 7.39794 86.2796 8.60394C84.895 9.76527 84.2026 11.8423 84.2026 14.8349H82.1926V9.13994C82.1926 8.24661 82.349 7.39794 82.6616 6.59394C82.9743 5.74527 83.5326 5.07527 84.3366 4.58394C85.1853 4.04794 86.3689 3.77994 87.8876 3.77994H119.378V6.79494H105.375V47.9999H96.6646Z"/>
<path d="M137.883 47.9999V6.79494H133.126C130.758 6.79494 128.882 7.39794 127.498 8.60394C126.113 9.76527 125.421 11.8423 125.421 14.8349H123.411V9.13994C123.411 8.24661 123.567 7.39794 123.88 6.59394C124.192 5.74527 124.751 5.07527 125.555 4.58394C126.403 4.04794 127.587 3.77994 129.106 3.77994H160.596V6.79494H146.593V47.9999H137.883Z"/>
<path d="M200.987 48.2679C199.513 48.2679 197.95 48.0893 196.297 47.7319C194.689 47.3299 193.126 46.5036 191.607 45.2529C190.133 44.0023 188.86 42.1039 187.788 39.5579L186.247 35.8059H168.425L162.931 47.9999H159.447L179.212 3.77994H182.227L197.235 39.5579C198.039 41.5233 199.022 43.0866 200.183 44.2479C201.345 45.4093 202.685 46.0793 204.203 46.2579V47.9329C203.846 48.0223 203.332 48.0893 202.662 48.1339C202.037 48.2233 201.479 48.2679 200.987 48.2679ZM169.832 32.7909H184.974L177.604 15.3039L169.832 32.7909Z"/>
<path d="M219.084 47.9999V30.3119L207.225 12.4899C206.466 11.3286 205.572 10.2119 204.545 9.13994C203.562 8.06794 202.535 7.15227 201.463 6.39294C200.391 5.63361 199.341 5.20927 198.314 5.11994V3.77994H205.617C207.314 3.77994 208.833 4.15961 210.173 4.91894C211.558 5.67827 212.786 6.61627 213.858 7.73294C214.93 8.84961 215.823 9.98861 216.538 11.1499L225.65 24.8849L238.648 3.77994H243.003L227.794 28.5029V47.9999H219.084Z"/>
<path d="M282.573 48.2679C281.099 48.2679 279.536 48.0893 277.883 47.7319C276.275 47.3299 274.712 46.5036 273.193 45.2529C271.719 44.0023 270.446 42.1039 269.374 39.5579L267.833 35.8059H250.011L244.517 47.9999H241.033L260.798 3.77994H263.813L278.821 39.5579C279.625 41.5233 280.608 43.0866 281.769 44.2479C282.93 45.4093 284.27 46.0793 285.789 46.2579V47.9329C285.432 48.0223 284.918 48.0893 284.248 48.1339C283.623 48.2233 283.064 48.2679 282.573 48.2679ZM251.418 32.7909H266.56L259.19 15.3039L251.418 32.7909Z"/>
<path d="M324.278 49.1389C322.446 49.1389 320.637 48.9603 318.851 48.6029C317.064 48.2456 315.434 47.7319 313.96 47.0619C312.486 46.3473 311.302 45.4986 310.409 44.5159C309.56 43.4886 309.136 42.3496 309.136 41.0989V33.2599H311.012C311.726 37.9053 313.156 41.2106 315.3 43.1759C317.488 45.1413 320.459 46.1239 324.211 46.1239C325.908 46.1239 327.382 45.8783 328.633 45.3869C329.928 44.8956 330.911 44.1809 331.581 43.2429C332.295 42.2603 332.653 41.0543 332.653 39.6249C332.653 37.7043 332.027 36.1186 330.777 34.8679C329.571 33.5726 327.896 32.2773 325.752 30.9819L317.511 26.0239C314.473 24.2373 312.329 22.4059 311.079 20.5299C309.828 18.6539 309.203 16.4876 309.203 14.0309C309.203 10.5023 310.543 7.71061 313.223 5.65594C315.947 3.60127 319.61 2.57394 324.211 2.57394C326.042 2.57394 327.851 2.75261 329.638 3.10994C331.424 3.46727 333.055 4.00327 334.529 4.71794C336.003 5.38794 337.164 6.21427 338.013 7.19694C338.906 8.17961 339.353 9.31861 339.353 10.6139V18.4529H337.477C336.717 13.8076 335.288 10.5023 333.189 8.53694C331.089 6.57161 328.342 5.58894 324.948 5.58894C323.34 5.58894 321.933 5.85694 320.727 6.39294C319.565 6.92894 318.672 7.68827 318.047 8.67094C317.421 9.60894 317.109 10.7479 317.109 12.0879C317.109 13.9639 317.734 15.4826 318.985 16.6439C320.28 17.8053 321.977 19.0113 324.077 20.2619L332.318 25.1529C335.355 26.9396 337.566 28.7039 338.951 30.4459C340.38 32.1433 341.095 34.2203 341.095 36.6769C341.095 40.5183 339.643 43.5556 336.74 45.7889C333.836 48.0223 329.682 49.1389 324.278 49.1389Z"/>
<path d="M361.767 47.9999V6.79494H357.01C354.643 6.79494 352.767 7.39794 351.382 8.60394C349.998 9.76527 349.305 11.8423 349.305 14.8349H347.295V9.13994C347.295 8.24661 347.452 7.39794 347.764 6.59394C348.077 5.74527 348.635 5.07527 349.439 4.58394C350.288 4.04794 351.472 3.77994 352.99 3.77994H384.48V6.79494H370.477V47.9999H361.767Z"/>
<path d="M411.695 48.6699C407.676 48.6699 404.325 47.9329 401.645 46.4589C398.965 44.9849 396.955 42.7739 395.615 39.8259C394.275 36.8333 393.605 33.1259 393.605 28.7039V12.4899C393.605 10.5693 393.36 9.00594 392.868 7.79994C392.377 6.59394 391.26 5.92394 389.518 5.78994H388.915V3.77994H396.285C397.849 3.77994 399.055 4.04794 399.903 4.58394C400.797 5.11994 401.422 6.01327 401.779 7.26394C402.137 8.51461 402.315 10.2566 402.315 12.4899L402.382 30.7139C402.427 35.3593 403.32 39.0219 405.062 41.7019C406.849 44.3373 409.507 45.6549 413.035 45.6549C416.073 45.6549 418.552 45.0519 420.472 43.8459C422.393 42.6399 423.8 40.7863 424.693 38.2849C425.631 35.7836 426.1 32.5899 426.1 28.7039V3.77994H429.45V28.7039C429.45 32.9026 428.87 36.4983 427.708 39.4909C426.592 42.4389 424.738 44.7169 422.147 46.3249C419.557 47.8883 416.073 48.6699 411.695 48.6699Z"/>
<path d="M443.007 47.9999V12.4899C443.007 10.4799 442.717 8.87194 442.136 7.66594C441.6 6.41527 440.327 5.78994 438.317 5.78994H437.647V3.77994H455.871C465.072 3.77994 471.973 5.72294 476.574 9.60894C481.219 13.4949 483.542 18.8326 483.542 25.6219C483.542 30.0439 482.537 33.9299 480.527 37.2799C478.562 40.6299 475.658 43.2653 471.817 45.1859C467.976 47.0619 463.241 47.9999 457.613 47.9999H443.007ZM457.412 45.3199C460.539 45.3199 463.308 44.5383 465.72 42.9749C468.132 41.4116 470.03 39.1783 471.415 36.2749C472.8 33.3716 473.492 29.9099 473.492 25.8899C473.492 21.9593 472.8 18.5423 471.415 15.6389C470.075 12.7356 468.177 10.4799 465.72 8.87194C463.308 7.26394 460.494 6.45994 457.278 6.45994C456.295 6.45994 455.447 6.48227 454.732 6.52694C454.017 6.57161 453.012 6.70561 451.717 6.92894V44.8509C452.7 45.0296 453.459 45.1636 453.995 45.2529C454.576 45.2976 455.112 45.3199 455.603 45.3199C456.094 45.3199 456.697 45.3199 457.412 45.3199Z"/>
<path d="M499.979 47.9999C498.416 47.9999 497.187 47.7543 496.294 47.2629C495.445 46.7269 494.842 45.8336 494.485 44.5829C494.128 43.2876 493.949 41.5233 493.949 39.2899V3.77994H502.659V39.2899C502.659 41.2999 502.927 42.9303 503.463 44.1809C504.044 45.3869 505.339 45.9899 507.349 45.9899H508.019V47.9999H499.979Z"/>
<path d="M535.881 49.3399C531.459 49.3399 527.573 48.3126 524.223 46.2579C520.918 44.1586 518.349 41.3446 516.518 37.8159C514.687 34.2873 513.771 30.3119 513.771 25.8899C513.771 21.4679 514.687 17.4926 516.518 13.9639C518.349 10.4353 520.918 7.64361 524.223 5.58894C527.573 3.48961 531.459 2.43994 535.881 2.43994C540.348 2.43994 544.211 3.48961 547.472 5.58894C550.777 7.64361 553.346 10.4353 555.177 13.9639C557.008 17.4926 557.924 21.4679 557.924 25.8899C557.924 30.3119 557.008 34.2873 555.177 37.8159C553.346 41.3446 550.777 44.1586 547.472 46.2579C544.211 48.3126 540.348 49.3399 535.881 49.3399ZM535.881 46.3249C538.606 46.3249 540.906 45.5433 542.782 43.9799C544.703 42.3719 546.154 40.0493 547.137 37.0119C548.164 33.9299 548.678 30.2226 548.678 25.8899C548.678 21.5126 548.164 17.8053 547.137 14.7679C546.154 11.7306 544.703 9.43027 542.782 7.86694C540.906 6.25894 538.606 5.45494 535.881 5.45494C533.201 5.45494 530.901 6.25894 528.98 7.86694C527.104 9.43027 525.652 11.7306 524.625 14.7679C523.642 17.8053 523.151 21.5126 523.151 25.8899C523.151 30.2226 523.642 33.9299 524.625 37.0119C525.652 40.0493 527.104 42.3719 528.98 43.9799C530.901 45.5433 533.201 46.3249 535.881 46.3249Z"/>
</mask>
<path d="M8.25551 47.9999V12.4899C8.25551 10.4799 7.96517 8.87194 7.38451 7.66594C6.84851 6.41527 5.57551 5.78994 3.56551 5.78994H2.89551V3.77994H21.3205C22.5265 3.77994 23.9112 3.86927 25.4745 4.04794C27.0378 4.18194 28.6235 4.49461 30.2315 4.98594C31.8842 5.47727 33.4028 6.21427 34.7875 7.19694C36.1722 8.17961 37.2888 9.49727 38.1375 11.1499C38.9862 12.7579 39.4105 14.7903 39.4105 17.2469C39.4105 19.5696 38.9862 21.5126 38.1375 23.0759C37.2888 24.5946 36.1945 25.8229 34.8545 26.7609C33.5592 27.6989 32.1745 28.4136 30.7005 28.9049C29.2265 29.3963 27.8195 29.7313 26.4795 29.9099C25.1842 30.0439 24.1345 30.1109 23.3305 30.1109H16.9655V47.9999H8.25551ZM16.9655 27.4309H20.9855C22.1468 27.4309 23.2635 27.2746 24.3355 26.9619C25.4075 26.6493 26.3678 26.0909 27.2165 25.2869C28.0652 24.4829 28.7352 23.4109 29.2265 22.0709C29.7625 20.6863 30.0305 18.9666 30.0305 16.9119C30.0305 14.8573 29.7625 13.1599 29.2265 11.8199C28.7352 10.4353 28.0652 9.36327 27.2165 8.60394C26.4125 7.79994 25.4968 7.24161 24.4695 6.92894C23.4422 6.61627 22.3925 6.45994 21.3205 6.45994C20.8292 6.45994 20.2262 6.48227 19.5115 6.52694C18.8415 6.57161 17.9928 6.70561 16.9655 6.92894V27.4309Z" stroke="#867F4F" stroke-width="4" mask="url(#path-1-outside-1_473_192)"/>
<path d="M80.9971 48.2679C79.5231 48.2679 77.9597 48.0893 76.3071 47.7319C74.6991 47.3299 73.1357 46.5036 71.6171 45.2529C70.1431 44.0023 68.8701 42.1039 67.7981 39.5579L66.2571 35.8059H48.4351L42.9411 47.9999H39.4571L59.2221 3.77994H62.2371L77.2451 39.5579C78.0491 41.5233 79.0318 43.0866 80.1931 44.2479C81.3544 45.4093 82.6944 46.0793 84.2131 46.2579V47.9329C83.8558 48.0223 83.3421 48.0893 82.6721 48.1339C82.0468 48.2233 81.4884 48.2679 80.9971 48.2679ZM49.8421 32.7909H64.9841L57.6141 15.3039L49.8421 32.7909Z" stroke="#867F4F" stroke-width="4" mask="url(#path-1-outside-1_473_192)"/>
<path d="M96.6646 47.9999V6.79494H91.9076C89.5403 6.79494 87.6643 7.39794 86.2796 8.60394C84.895 9.76527 84.2026 11.8423 84.2026 14.8349H82.1926V9.13994C82.1926 8.24661 82.349 7.39794 82.6616 6.59394C82.9743 5.74527 83.5326 5.07527 84.3366 4.58394C85.1853 4.04794 86.3689 3.77994 87.8876 3.77994H119.378V6.79494H105.375V47.9999H96.6646Z" stroke="#867F4F" stroke-width="4" mask="url(#path-1-outside-1_473_192)"/>
<path d="M137.883 47.9999V6.79494H133.126C130.758 6.79494 128.882 7.39794 127.498 8.60394C126.113 9.76527 125.421 11.8423 125.421 14.8349H123.411V9.13994C123.411 8.24661 123.567 7.39794 123.88 6.59394C124.192 5.74527 124.751 5.07527 125.555 4.58394C126.403 4.04794 127.587 3.77994 129.106 3.77994H160.596V6.79494H146.593V47.9999H137.883Z" stroke="#867F4F" stroke-width="4" mask="url(#path-1-outside-1_473_192)"/>
<path d="M200.987 48.2679C199.513 48.2679 197.95 48.0893 196.297 47.7319C194.689 47.3299 193.126 46.5036 191.607 45.2529C190.133 44.0023 188.86 42.1039 187.788 39.5579L186.247 35.8059H168.425L162.931 47.9999H159.447L179.212 3.77994H182.227L197.235 39.5579C198.039 41.5233 199.022 43.0866 200.183 44.2479C201.345 45.4093 202.685 46.0793 204.203 46.2579V47.9329C203.846 48.0223 203.332 48.0893 202.662 48.1339C202.037 48.2233 201.479 48.2679 200.987 48.2679ZM169.832 32.7909H184.974L177.604 15.3039L169.832 32.7909Z" stroke="#867F4F" stroke-width="4" mask="url(#path-1-outside-1_473_192)"/>
<path d="M219.084 47.9999V30.3119L207.225 12.4899C206.466 11.3286 205.572 10.2119 204.545 9.13994C203.562 8.06794 202.535 7.15227 201.463 6.39294C200.391 5.63361 199.341 5.20927 198.314 5.11994V3.77994H205.617C207.314 3.77994 208.833 4.15961 210.173 4.91894C211.558 5.67827 212.786 6.61627 213.858 7.73294C214.93 8.84961 215.823 9.98861 216.538 11.1499L225.65 24.8849L238.648 3.77994H243.003L227.794 28.5029V47.9999H219.084Z" stroke="#867F4F" stroke-width="4" mask="url(#path-1-outside-1_473_192)"/>
<path d="M282.573 48.2679C281.099 48.2679 279.536 48.0893 277.883 47.7319C276.275 47.3299 274.712 46.5036 273.193 45.2529C271.719 44.0023 270.446 42.1039 269.374 39.5579L267.833 35.8059H250.011L244.517 47.9999H241.033L260.798 3.77994H263.813L278.821 39.5579C279.625 41.5233 280.608 43.0866 281.769 44.2479C282.93 45.4093 284.27 46.0793 285.789 46.2579V47.9329C285.432 48.0223 284.918 48.0893 284.248 48.1339C283.623 48.2233 283.064 48.2679 282.573 48.2679ZM251.418 32.7909H266.56L259.19 15.3039L251.418 32.7909Z" stroke="#867F4F" stroke-width="4" mask="url(#path-1-outside-1_473_192)"/>
<path d="M324.278 49.1389C322.446 49.1389 320.637 48.9603 318.851 48.6029C317.064 48.2456 315.434 47.7319 313.96 47.0619C312.486 46.3473 311.302 45.4986 310.409 44.5159C309.56 43.4886 309.136 42.3496 309.136 41.0989V33.2599H311.012C311.726 37.9053 313.156 41.2106 315.3 43.1759C317.488 45.1413 320.459 46.1239 324.211 46.1239C325.908 46.1239 327.382 45.8783 328.633 45.3869C329.928 44.8956 330.911 44.1809 331.581 43.2429C332.295 42.2603 332.653 41.0543 332.653 39.6249C332.653 37.7043 332.027 36.1186 330.777 34.8679C329.571 33.5726 327.896 32.2773 325.752 30.9819L317.511 26.0239C314.473 24.2373 312.329 22.4059 311.079 20.5299C309.828 18.6539 309.203 16.4876 309.203 14.0309C309.203 10.5023 310.543 7.71061 313.223 5.65594C315.947 3.60127 319.61 2.57394 324.211 2.57394C326.042 2.57394 327.851 2.75261 329.638 3.10994C331.424 3.46727 333.055 4.00327 334.529 4.71794C336.003 5.38794 337.164 6.21427 338.013 7.19694C338.906 8.17961 339.353 9.31861 339.353 10.6139V18.4529H337.477C336.717 13.8076 335.288 10.5023 333.189 8.53694C331.089 6.57161 328.342 5.58894 324.948 5.58894C323.34 5.58894 321.933 5.85694 320.727 6.39294C319.565 6.92894 318.672 7.68827 318.047 8.67094C317.421 9.60894 317.109 10.7479 317.109 12.0879C317.109 13.9639 317.734 15.4826 318.985 16.6439C320.28 17.8053 321.977 19.0113 324.077 20.2619L332.318 25.1529C335.355 26.9396 337.566 28.7039 338.951 30.4459C340.38 32.1433 341.095 34.2203 341.095 36.6769C341.095 40.5183 339.643 43.5556 336.74 45.7889C333.836 48.0223 329.682 49.1389 324.278 49.1389Z" stroke="#867F4F" stroke-width="4" mask="url(#path-1-outside-1_473_192)"/>
<path d="M361.767 47.9999V6.79494H357.01C354.643 6.79494 352.767 7.39794 351.382 8.60394C349.998 9.76527 349.305 11.8423 349.305 14.8349H347.295V9.13994C347.295 8.24661 347.452 7.39794 347.764 6.59394C348.077 5.74527 348.635 5.07527 349.439 4.58394C350.288 4.04794 351.472 3.77994 352.99 3.77994H384.48V6.79494H370.477V47.9999H361.767Z" stroke="#867F4F" stroke-width="4" mask="url(#path-1-outside-1_473_192)"/>
<path d="M411.695 48.6699C407.676 48.6699 404.325 47.9329 401.645 46.4589C398.965 44.9849 396.955 42.7739 395.615 39.8259C394.275 36.8333 393.605 33.1259 393.605 28.7039V12.4899C393.605 10.5693 393.36 9.00594 392.868 7.79994C392.377 6.59394 391.26 5.92394 389.518 5.78994H388.915V3.77994H396.285C397.849 3.77994 399.055 4.04794 399.903 4.58394C400.797 5.11994 401.422 6.01327 401.779 7.26394C402.137 8.51461 402.315 10.2566 402.315 12.4899L402.382 30.7139C402.427 35.3593 403.32 39.0219 405.062 41.7019C406.849 44.3373 409.507 45.6549 413.035 45.6549C416.073 45.6549 418.552 45.0519 420.472 43.8459C422.393 42.6399 423.8 40.7863 424.693 38.2849C425.631 35.7836 426.1 32.5899 426.1 28.7039V3.77994H429.45V28.7039C429.45 32.9026 428.87 36.4983 427.708 39.4909C426.592 42.4389 424.738 44.7169 422.147 46.3249C419.557 47.8883 416.073 48.6699 411.695 48.6699Z" stroke="#867F4F" stroke-width="4" mask="url(#path-1-outside-1_473_192)"/>
<path d="M443.007 47.9999V12.4899C443.007 10.4799 442.717 8.87194 442.136 7.66594C441.6 6.41527 440.327 5.78994 438.317 5.78994H437.647V3.77994H455.871C465.072 3.77994 471.973 5.72294 476.574 9.60894C481.219 13.4949 483.542 18.8326 483.542 25.6219C483.542 30.0439 482.537 33.9299 480.527 37.2799C478.562 40.6299 475.658 43.2653 471.817 45.1859C467.976 47.0619 463.241 47.9999 457.613 47.9999H443.007ZM457.412 45.3199C460.539 45.3199 463.308 44.5383 465.72 42.9749C468.132 41.4116 470.03 39.1783 471.415 36.2749C472.8 33.3716 473.492 29.9099 473.492 25.8899C473.492 21.9593 472.8 18.5423 471.415 15.6389C470.075 12.7356 468.177 10.4799 465.72 8.87194C463.308 7.26394 460.494 6.45994 457.278 6.45994C456.295 6.45994 455.447 6.48227 454.732 6.52694C454.017 6.57161 453.012 6.70561 451.717 6.92894V44.8509C452.7 45.0296 453.459 45.1636 453.995 45.2529C454.576 45.2976 455.112 45.3199 455.603 45.3199C456.094 45.3199 456.697 45.3199 457.412 45.3199Z" stroke="#867F4F" stroke-width="4" mask="url(#path-1-outside-1_473_192)"/>
<path d="M499.979 47.9999C498.416 47.9999 497.187 47.7543 496.294 47.2629C495.445 46.7269 494.842 45.8336 494.485 44.5829C494.128 43.2876 493.949 41.5233 493.949 39.2899V3.77994H502.659V39.2899C502.659 41.2999 502.927 42.9303 503.463 44.1809C504.044 45.3869 505.339 45.9899 507.349 45.9899H508.019V47.9999H499.979Z" stroke="#867F4F" stroke-width="4" mask="url(#path-1-outside-1_473_192)"/>
<path d="M535.881 49.3399C531.459 49.3399 527.573 48.3126 524.223 46.2579C520.918 44.1586 518.349 41.3446 516.518 37.8159C514.687 34.2873 513.771 30.3119 513.771 25.8899C513.771 21.4679 514.687 17.4926 516.518 13.9639C518.349 10.4353 520.918 7.64361 524.223 5.58894C527.573 3.48961 531.459 2.43994 535.881 2.43994C540.348 2.43994 544.211 3.48961 547.472 5.58894C550.777 7.64361 553.346 10.4353 555.177 13.9639C557.008 17.4926 557.924 21.4679 557.924 25.8899C557.924 30.3119 557.008 34.2873 555.177 37.8159C553.346 41.3446 550.777 44.1586 547.472 46.2579C544.211 48.3126 540.348 49.3399 535.881 49.3399ZM535.881 46.3249C538.606 46.3249 540.906 45.5433 542.782 43.9799C544.703 42.3719 546.154 40.0493 547.137 37.0119C548.164 33.9299 548.678 30.2226 548.678 25.8899C548.678 21.5126 548.164 17.8053 547.137 14.7679C546.154 11.7306 544.703 9.43027 542.782 7.86694C540.906 6.25894 538.606 5.45494 535.881 5.45494C533.201 5.45494 530.901 6.25894 528.98 7.86694C527.104 9.43027 525.652 11.7306 524.625 14.7679C523.642 17.8053 523.151 21.5126 523.151 25.8899C523.151 30.2226 523.642 33.9299 524.625 37.0119C525.652 40.0493 527.104 42.3719 528.98 43.9799C530.901 45.5433 533.201 46.3249 535.881 46.3249Z" stroke="#867F4F" stroke-width="4" mask="url(#path-1-outside-1_473_192)"/>
</svg>
