<?xml version="1.0" encoding="utf-8"?>
<!-- Generator: Adobe Illustrator 24.1.2, SVG Export Plug-In . SVG Version: 6.00 Build 0)  -->
<svg version="1.1" id="Layer_3" xmlns="http://www.w3.org/2000/svg" xmlns:xlink="http://www.w3.org/1999/xlink" x="0px" y="0px"
	 viewBox="0 0 1920 1080" style="enable-background:new 0 0 1920 1080;" xml:space="preserve">
<style type="text/css">
	.st0{fill:#65AA8B;}
	.st1{fill:#6DC3DA;}
	.st2{fill:#FFFFFF;}
	.st3{fill:#FCF6C2;}
	.st4{fill:#FB7D91;}
</style>
<path id="green" class="st0" d="M0,1083h1920V773V349v-3.25c-46.87-9.49-96.42-21.15-119-31.75c-49-23-43,28-167,18s-137-68-227-62
	s-126,82-195,47s-124,78-402,48s-449,98-654,88c-61.68-3.01-113.57-8.74-156-15.27V1083z"/>
<rect id="blue" y="352" class="st1" width="1920" height="731"/>
<path id="yellow_1_" class="st2" d="M0,1066h1920V494.23C1287.02,392.21,216.82,361.26,0,355.9V1066z"/>
<path id="yellow" class="st3" d="M0,1080h1920V508.23C1287.02,406.21,216.82,375.26,0,369.9V1080z"/>
<g width="20px" id="tree">
	<path class="st0" d="M218.5,753.5c0,0-23.35-193,109.33-401.5c-30.65-7-66.33,13.5-90.33,52.5c-4-36,23-65,68-73
		c-30-27-43-31-76-40s-84,3-110,12s-44,13-47,13s18-37,64-59s105-26,142,2s49,65,53,68c4,1-11-82-50-112s-118-62-117-67
		s85-12,130,16s65,56,67,122c30-37,75-79,161-50c58,20,88,69,84,70c-4.13,1.03-13.01-4.22-16.73-5.56
		c-12.71-4.59-25.51-8.92-38.51-12.62c-37.38-10.62-77.08-17.18-114.92-5.05c-26.95,8.64-51.49,24.41-72.26,43.48
		c-4.72,4.33-9.36,8.76-13.5,13.66c3.73-6.69,13.48-11.45,19.92-15.2c8.02-4.66,16.49-8.55,25.26-11.6
		c17.5-6.1,36.2-8.85,54.71-7.71c35.5,2.2,70.03,18.87,93.28,45.79c16.15,18.7,26.72,41.78,32.87,65.71
		c3.73,14.49,5.91,29.56,4.26,44.43c-17.37-21.3-34.82-42.67-54.87-61.46c-20.06-18.79-42.94-35.05-68.74-44.54
		s-54.74-11.83-80.86-3.29c19.25,8.33,32.48,28.17,34.56,49.05c2.07,20.87-6.38,42.16-20.92,57.28c0.06-13.2-0.18-26.41-0.72-39.6
		c-0.44-10.82,0.81-23.52-4.38-33.26c-4.16-7.81-10.98-14.99-17.17-21.26c-5.42-5.49-13.01-11.59-21.27-9.24c-14,4-83,158-41,416
		C213.5,762.5,218.5,753.5,218.5,753.5z"/>
</g>
<path id="pink" class="st4" d="M0,1080h1920v-42.58c-88.94,9.9-458.36,41.92-776-65.42C780,849,384,704,1,737
	c-0.34,0.03-0.66,0.06-1,0.09V1080z"/>
</svg>