<svg width="199" height="29" viewBox="0 0 199 29" fill="none" xmlns="http://www.w3.org/2000/svg">
<path d="M3.2 22L3.2 4.912C3.2 3.952 3.06133 3.184 2.784 2.608C2.528 2.01067 1.92 1.712 0.96 1.712H0.48L0.48 0.879999L9.088 0.879999C9.664 0.879999 10.3147 0.922666 11.04 1.008C11.7653 1.072 12.5013 1.22133 13.248 1.456C13.9947 1.69067 14.688 2.04267 15.328 2.512C15.968 2.98133 16.48 3.61067 16.864 4.4C17.2693 5.168 17.472 6.13867 17.472 7.312C17.472 8.4 17.28 9.31733 16.896 10.064C16.512 10.7893 16.0107 11.376 15.392 11.824C14.7733 12.272 14.1227 12.6133 13.44 12.848C12.7787 13.0827 12.1387 13.2427 11.52 13.328C10.9227 13.392 10.432 13.424 10.048 13.424H6.816L6.816 22H3.2ZM6.816 12.208H8.928C9.44 12.208 9.96267 12.1333 10.496 11.984C11.0293 11.8133 11.52 11.536 11.968 11.152C12.4373 10.7467 12.8107 10.224 13.088 9.584C13.3653 8.92267 13.504 8.112 13.504 7.152C13.504 6.17067 13.3653 5.36 13.088 4.72C12.8107 4.05867 12.4373 3.536 11.968 3.152C11.52 2.768 11.04 2.50133 10.528 2.352C10.016 2.18133 9.51467 2.096 9.024 2.096C8.72533 2.096 8.384 2.11733 8 2.16C7.63733 2.20267 7.24267 2.26667 6.816 2.352V12.208ZM24.1135 22.32C23.3882 22.32 22.7162 22.224 22.0975 22.032C21.5002 21.8613 20.9668 21.5947 20.4975 21.232C20.0282 20.8693 19.6548 20.4107 19.3775 19.856C19.1215 19.3013 18.9935 18.6613 18.9935 17.936C18.9935 16.848 19.2922 15.9627 19.8895 15.28C20.4868 14.5973 21.4042 14.096 22.6415 13.776C23.9002 13.4347 25.5002 13.264 27.4415 13.264H28.1135C28.1135 11.8987 27.9855 10.8427 27.7295 10.096C27.4735 9.328 27.1002 8.79467 26.6095 8.496C26.1402 8.176 25.5855 8.016 24.9455 8.016C24.1562 8.016 23.4628 8.208 22.8655 8.592C22.2682 8.95467 21.8522 9.70133 21.6175 10.832H19.9855C19.9855 10.2773 20.0175 9.73333 20.0815 9.2C20.1668 8.66667 20.4015 8.18667 20.7855 7.76C21.1695 7.33333 21.8095 7.04533 22.7055 6.896C23.6228 6.72533 24.5828 6.64 25.5855 6.64C26.5028 6.64 27.3348 6.75733 28.0815 6.992C28.8495 7.22667 29.5002 7.6 30.0335 8.112C30.5882 8.624 31.0148 9.31733 31.3135 10.192C31.6122 11.0453 31.7615 12.1013 31.7615 13.36V22H29.4895L28.3695 20.56H28.2095C27.9108 20.9867 27.4202 21.392 26.7375 21.776C26.0548 22.1387 25.1802 22.32 24.1135 22.32ZM25.2655 20.784C26.0122 20.784 26.6095 20.5707 27.0575 20.144C27.5268 19.696 27.8788 19.2373 28.1135 18.768V14.64H27.4415C25.8842 14.64 24.7215 14.928 23.9535 15.504C23.1855 16.0587 22.8015 16.8693 22.8015 17.936C22.8015 18.896 23.0362 19.6107 23.5055 20.08C23.9748 20.5493 24.5615 20.784 25.2655 20.784ZM40.665 22.32C39.3423 22.32 38.2863 21.9573 37.497 21.232C36.729 20.4853 36.345 19.3653 36.345 17.872V8.336H34.297V6.96H36.345V4.08L37.945 2.16H39.993V6.96H43.641V8.336H39.993V17.968C39.993 19.0773 40.153 19.856 40.473 20.304C40.793 20.7307 41.2623 20.944 41.881 20.944C42.4357 20.944 42.9157 20.8693 43.321 20.72C43.7263 20.5493 44.0677 20.368 44.345 20.176L44.761 20.976C44.3557 21.296 43.833 21.6053 43.193 21.904C42.553 22.1813 41.7103 22.32 40.665 22.32ZM51.7588 22.32C50.4361 22.32 49.3801 21.9573 48.5908 21.232C47.8228 20.4853 47.4388 19.3653 47.4388 17.872V8.336H45.3908V6.96H47.4388V4.08L49.0388 2.16H51.0868V6.96H54.7348V8.336H51.0868V17.968C51.0868 19.0773 51.2468 19.856 51.5668 20.304C51.8868 20.7307 52.3561 20.944 52.9748 20.944C53.5294 20.944 54.0094 20.8693 54.4148 20.72C54.8201 20.5493 55.1614 20.368 55.4388 20.176L55.8548 20.976C55.4494 21.296 54.9268 21.6053 54.2868 21.904C53.6468 22.1813 52.8041 22.32 51.7588 22.32ZM61.9885 22.32C61.2632 22.32 60.5912 22.224 59.9725 22.032C59.3752 21.8613 58.8418 21.5947 58.3725 21.232C57.9032 20.8693 57.5298 20.4107 57.2525 19.856C56.9965 19.3013 56.8685 18.6613 56.8685 17.936C56.8685 16.848 57.1672 15.9627 57.7645 15.28C58.3618 14.5973 59.2792 14.096 60.5165 13.776C61.7752 13.4347 63.3752 13.264 65.3165 13.264H65.9885C65.9885 11.8987 65.8605 10.8427 65.6045 10.096C65.3485 9.328 64.9752 8.79467 64.4845 8.496C64.0152 8.176 63.4605 8.016 62.8205 8.016C62.0312 8.016 61.3378 8.208 60.7405 8.592C60.1432 8.95467 59.7272 9.70133 59.4925 10.832H57.8605C57.8605 10.2773 57.8925 9.73333 57.9565 9.2C58.0418 8.66667 58.2765 8.18667 58.6605 7.76C59.0445 7.33333 59.6845 7.04533 60.5805 6.896C61.4978 6.72533 62.4578 6.64 63.4605 6.64C64.3778 6.64 65.2098 6.75733 65.9565 6.992C66.7245 7.22667 67.3752 7.6 67.9085 8.112C68.4632 8.624 68.8898 9.31733 69.1885 10.192C69.4872 11.0453 69.6365 12.1013 69.6365 13.36V22H67.3645L66.2445 20.56H66.0845C65.7858 20.9867 65.2952 21.392 64.6125 21.776C63.9298 22.1387 63.0552 22.32 61.9885 22.32ZM63.1405 20.784C63.8872 20.784 64.4845 20.5707 64.9325 20.144C65.4018 19.696 65.7538 19.2373 65.9885 18.768V14.64H65.3165C63.7592 14.64 62.5965 14.928 61.8285 15.504C61.0605 16.0587 60.6765 16.8693 60.6765 17.936C60.6765 18.896 60.9112 19.6107 61.3805 20.08C61.8498 20.5493 62.4365 20.784 63.1405 20.784ZM74.2603 28.4V27.344C75.3269 27.344 76.2229 27.1307 76.9483 26.704C77.6736 26.2773 78.2816 25.424 78.7723 24.144L79.4123 22.384L73.9083 9.84C73.5883 9.05067 73.1509 8.45333 72.5963 8.048C72.0629 7.62133 71.4336 7.36533 70.7082 7.28V6.64H73.4923C74.4523 6.64 75.2736 6.87467 75.9563 7.344C76.6603 7.792 77.1829 8.41067 77.5243 9.2L81.2043 17.584L85.1403 6.96H86.8043L80.4363 24.08C80.0096 25.232 79.5509 26.1173 79.0603 26.736C78.5696 27.376 78.0256 27.8133 77.4283 28.048C76.8309 28.2827 76.1589 28.4 75.4123 28.4H74.2603ZM93.4573 22.32C92.7319 22.32 92.0599 22.224 91.4413 22.032C90.8439 21.8613 90.3106 21.5947 89.8413 21.232C89.3719 20.8693 88.9986 20.4107 88.7213 19.856C88.4653 19.3013 88.3372 18.6613 88.3372 17.936C88.3372 16.848 88.6359 15.9627 89.2333 15.28C89.8306 14.5973 90.7479 14.096 91.9852 13.776C93.2439 13.4347 94.8439 13.264 96.7853 13.264H97.4573C97.4573 11.8987 97.3293 10.8427 97.0733 10.096C96.8173 9.328 96.4439 8.79467 95.9533 8.496C95.4839 8.176 94.9293 8.016 94.2893 8.016C93.4999 8.016 92.8066 8.208 92.2093 8.592C91.6119 8.95467 91.1959 9.70133 90.9613 10.832H89.3293C89.3293 10.2773 89.3613 9.73333 89.4253 9.2C89.5106 8.66667 89.7453 8.18667 90.1293 7.76C90.5133 7.33333 91.1533 7.04533 92.0493 6.896C92.9666 6.72533 93.9266 6.64 94.9293 6.64C95.8466 6.64 96.6786 6.75733 97.4253 6.992C98.1933 7.22667 98.8439 7.6 99.3773 8.112C99.9319 8.624 100.359 9.31733 100.657 10.192C100.956 11.0453 101.105 12.1013 101.105 13.36V22H98.8333L97.7133 20.56H97.5533C97.2546 20.9867 96.7639 21.392 96.0813 21.776C95.3986 22.1387 94.5239 22.32 93.4573 22.32ZM94.6093 20.784C95.3559 20.784 95.9533 20.5707 96.4013 20.144C96.8706 19.696 97.2226 19.2373 97.4573 18.768V14.64H96.7853C95.2279 14.64 94.0653 14.928 93.2973 15.504C92.5293 16.0587 92.1453 16.8693 92.1453 17.936C92.1453 18.896 92.3799 19.6107 92.8493 20.08C93.3186 20.5493 93.9053 20.784 94.6093 20.784ZM119.833 22.544C118.958 22.544 118.094 22.4587 117.241 22.288C116.387 22.1173 115.598 21.8613 114.873 21.52C114.169 21.1787 113.603 20.7733 113.177 20.304C112.771 19.8133 112.569 19.2693 112.569 18.672V15.056H113.337C113.678 17.2533 114.371 18.8213 115.417 19.76C116.462 20.6987 117.881 21.168 119.673 21.168C120.462 21.168 121.166 21.0507 121.785 20.816C122.403 20.5813 122.883 20.2293 123.225 19.76C123.587 19.2693 123.769 18.6827 123.769 18C123.769 17.0827 123.47 16.3147 122.873 15.696C122.297 15.056 121.475 14.4053 120.409 13.744L116.473 11.408C115.043 10.576 114.03 9.72267 113.433 8.848C112.857 7.97333 112.569 6.94933 112.569 5.776C112.569 4.09067 113.187 2.75733 114.425 1.776C115.662 0.794666 117.305 0.303999 119.353 0.303999C120.206 0.303999 121.049 0.389332 121.881 0.559999C122.713 0.730665 123.47 0.986665 124.153 1.328C124.857 1.648 125.411 2.04267 125.817 2.512C126.243 2.98133 126.457 3.52533 126.457 4.144V7.76H125.689C125.326 5.56267 124.633 4.00533 123.609 3.088C122.606 2.14933 121.262 1.68 119.577 1.68C118.873 1.68 118.233 1.808 117.657 2.064C117.081 2.32 116.633 2.68267 116.313 3.152C115.993 3.62133 115.833 4.18667 115.833 4.848C115.833 5.744 116.131 6.48 116.729 7.056C117.347 7.632 118.19 8.22933 119.257 8.848L123.193 11.184C124.601 12.016 125.635 12.8373 126.297 13.648C126.958 14.4373 127.289 15.4187 127.289 16.592C127.289 18.4267 126.627 19.8773 125.305 20.944C124.003 22.0107 122.179 22.544 119.833 22.544ZM135.603 22.32C134.28 22.32 133.224 21.9573 132.435 21.232C131.667 20.4853 131.283 19.3653 131.283 17.872V8.336H129.235V6.96H131.283V4.08L132.883 2.16H134.931V6.96H138.579V8.336H134.931V17.968C134.931 19.0773 135.091 19.856 135.411 20.304C135.731 20.7307 136.2 20.944 136.819 20.944C137.373 20.944 137.853 20.8693 138.259 20.72C138.664 20.5493 139.005 20.368 139.283 20.176L139.699 20.976C139.293 21.296 138.771 21.6053 138.131 21.904C137.491 22.1813 136.648 22.32 135.603 22.32ZM147.656 22.32C146.504 22.32 145.491 22.1387 144.616 21.776C143.763 21.392 143.102 20.7733 142.632 19.92C142.163 19.0667 141.928 17.9253 141.928 16.496V10.992C141.928 10.032 141.79 9.264 141.512 8.688C141.256 8.09067 140.648 7.792 139.688 7.792H139.368V6.96H142.696C143.443 6.96 144.019 7.07733 144.424 7.312C144.851 7.54667 145.15 7.952 145.32 8.528C145.491 9.104 145.576 9.92533 145.576 10.992V16.496C145.576 17.584 145.704 18.448 145.96 19.088C146.238 19.728 146.6 20.1867 147.048 20.464C147.518 20.7413 148.04 20.88 148.616 20.88C149.086 20.88 149.512 20.784 149.896 20.592C150.28 20.3787 150.622 20.1227 150.92 19.824C151.219 19.5253 151.454 19.2373 151.624 18.96V6.96H155.272V22H153L151.88 20.624H151.72C151.315 21.0507 150.771 21.4453 150.088 21.808C149.406 22.1493 148.595 22.32 147.656 22.32ZM164.992 22.32C163.584 22.32 162.41 21.9787 161.472 21.296C160.533 20.592 159.829 19.6427 159.36 18.448C158.89 17.2533 158.656 15.9307 158.656 14.48C158.656 13.008 158.89 11.6853 159.36 10.512C159.85 9.31733 160.576 8.37867 161.536 7.696C162.517 6.992 163.744 6.64 165.216 6.64C166.005 6.64 166.698 6.74667 167.296 6.96C167.893 7.152 168.405 7.36533 168.832 7.6V4.912C168.832 3.952 168.693 3.184 168.416 2.608C168.16 2.01067 167.552 1.712 166.592 1.712H166.144V0.879999L169.6 0.879999C170.346 0.879999 170.922 0.997332 171.328 1.232C171.754 1.46667 172.053 1.872 172.224 2.448C172.394 3.024 172.48 3.84533 172.48 4.912V22H170.208L169.088 20.56H168.928C168.629 20.9867 168.16 21.392 167.52 21.776C166.901 22.1387 166.058 22.32 164.992 22.32ZM165.76 20.944C166.336 20.944 166.816 20.8373 167.2 20.624C167.605 20.4107 167.936 20.144 168.192 19.824C168.448 19.504 168.661 19.2053 168.832 18.928V8.976C168.448 8.74133 168.01 8.528 167.52 8.336C167.029 8.12267 166.517 8.016 165.984 8.016C165.13 8.016 164.437 8.304 163.904 8.88C163.392 9.43467 163.018 10.2027 162.784 11.184C162.57 12.144 162.464 13.2427 162.464 14.48C162.464 15.696 162.57 16.7947 162.784 17.776C162.997 18.7573 163.349 19.536 163.84 20.112C164.33 20.6667 164.97 20.944 165.76 20.944ZM177.187 22V10.992C177.187 10.032 177.048 9.264 176.771 8.688C176.515 8.09067 175.907 7.792 174.947 7.792H174.498V6.96H177.955C178.701 6.96 179.277 7.07733 179.683 7.312C180.109 7.54667 180.408 7.952 180.579 8.528C180.749 9.104 180.835 9.92533 180.835 10.992V22H177.187ZM178.915 5.168C178.232 5.168 177.699 4.944 177.315 4.496C176.952 4.02667 176.771 3.48267 176.771 2.864C176.771 2.37333 176.92 1.97867 177.219 1.68C177.539 1.38133 177.933 1.232 178.403 1.232C179.085 1.232 179.619 1.46667 180.003 1.936C180.387 2.384 180.579 2.90667 180.579 3.504C180.579 4.016 180.419 4.42133 180.099 4.72C179.779 5.01867 179.384 5.168 178.915 5.168ZM191.485 22.32C189.949 22.32 188.626 21.9787 187.516 21.296C186.407 20.592 185.554 19.6427 184.957 18.448C184.381 17.2533 184.093 15.9307 184.093 14.48C184.093 13.008 184.381 11.6853 184.957 10.512C185.554 9.31733 186.407 8.37867 187.516 7.696C188.626 6.992 189.949 6.64 191.485 6.64C193.042 6.64 194.375 6.992 195.485 7.696C196.594 8.37867 197.437 9.31733 198.013 10.512C198.61 11.6853 198.909 13.008 198.909 14.48C198.909 15.9307 198.61 17.2533 198.013 18.448C197.437 19.6427 196.594 20.592 195.485 21.296C194.375 21.9787 193.042 22.32 191.485 22.32ZM191.485 20.944C192.274 20.944 192.935 20.6667 193.469 20.112C194.002 19.536 194.407 18.7573 194.685 17.776C194.983 16.7947 195.133 15.696 195.133 14.48C195.133 13.2427 194.983 12.144 194.685 11.184C194.407 10.2027 194.002 9.43467 193.469 8.88C192.935 8.304 192.274 8.016 191.485 8.016C190.738 8.016 190.087 8.304 189.533 8.88C188.999 9.43467 188.583 10.2027 188.285 11.184C188.007 12.144 187.869 13.2427 187.869 14.48C187.869 15.696 188.007 16.7947 188.285 17.776C188.583 18.7573 188.999 19.536 189.533 20.112C190.087 20.6667 190.738 20.944 191.485 20.944Z" fill="#1C1C1C"/>
</svg>
