<svg width="224" height="97" viewBox="0 0 224 97" fill="none" xmlns="http://www.w3.org/2000/svg">
<path d="M25.152 27.6046L24.6 23.1022L17.4 21.5178L13.176 25.2362L14.192 29.3425L18.728 31.4037L24.6 29.4233L25.152 27.6046Z" fill="#6EC4DB"/>
<path d="M137.328 35.5667L126.128 34.7583L118.128 35.5667L117.328 33.1417L124.528 29.1H130.128L134.128 30.7167L137.328 32.3333V35.5667Z" fill="#FEF7C0"/>
<path d="M36.44 82.45L39.912 80.1139L41.064 76.6138L38.752 73.1057L35.288 71.9417H30.664L29.512 73.1057L27.2 76.6138L28.352 77.7778L30.664 81.286L34.128 82.45H36.44Z" fill="#FA7C92"/>
<path d="M133.328 57.3917L134.128 53.35L131.728 50.925L126.928 51.7333L125.328 54.1583V57.3917L126.928 59.0083L127.728 58.2L130.928 59.0083L133.328 57.3917Z" fill="#6EC4DB"/>
<path d="M34.128 83.6382C32.736 83.6544 31.336 83.4281 30.072 82.8542C28.752 82.2479 27.592 81.2294 26.96 79.9118C26.248 78.4326 26.24 76.727 26.24 75.0861C26.248 66.6067 26.256 58.1272 26.256 49.6478C26.256 47.6836 26.256 45.7193 26.256 43.7551C26.256 41.9202 26.808 40.3277 27.952 38.897C29.16 37.3854 30.96 35.6394 33.312 33.7237C35.376 32.01 36.968 30.5227 38.032 29.2778C39.2 27.9198 39.784 26.3921 39.784 24.7512C39.784 22.2534 38.848 20.273 37 18.8827C35.224 17.5408 32.528 16.8618 28.992 16.8618C25.616 16.8618 22.248 17.751 19.296 19.4162C17.992 20.1517 18.936 21.3319 20.096 21.4208C20.528 21.4532 20.96 21.3885 21.392 21.3642C24.144 21.2511 26.792 23.3285 27.08 26.1415C27.224 27.5803 26.76 29.0757 25.824 30.1751C24.944 31.2097 23.696 31.8807 22.392 32.2525C20.6 32.7698 18.672 32.7779 16.88 32.2687C15.448 31.8645 14.08 31.1127 13.112 29.973C11.512 28.1057 11.144 25.3574 11.848 22.9971C12.552 20.6367 14.216 18.6482 16.2 17.2094C19.904 14.5338 24.496 13.3456 29.008 13.3456C33.672 13.3456 37.48 14.4045 40.336 16.49C43.152 18.5432 44.512 21.243 44.512 24.7431C44.512 26.675 43.96 28.3078 42.816 29.7386C41.608 31.2582 39.8 33.0204 37.448 34.9847C35.432 36.6417 33.888 38.1048 32.872 39.3335C31.76 40.6672 31.192 42.1546 31.192 43.747C31.192 48.0797 31.192 52.4204 31.192 56.7531C31.192 59.3721 31.184 61.983 31.168 64.5939C31.16 65.9034 31.152 67.2048 31.144 68.5143C31.136 69.2014 31.048 69.8885 31.064 70.5756C31.072 71.0525 30.928 71.6911 31.624 71.7315C31.968 71.7557 32.288 71.5698 32.592 71.4243C34.352 70.5594 36.504 70.5432 38.272 71.4001C40.04 72.2569 41.368 73.9867 41.736 75.9348C42.104 77.8829 41.488 79.9927 40.12 81.4072C38.64 82.935 36.448 83.5736 34.328 83.6302C34.248 83.6382 34.192 83.6382 34.128 83.6382ZM34.056 72.8147C32.488 72.8147 31.256 73.1703 30.4 73.8736C29.488 74.6172 29.024 75.6681 29.024 76.9937C29.024 78.3113 29.488 79.3864 30.408 80.1947C31.296 80.9788 32.52 81.3749 34.056 81.3749C35.592 81.3749 36.816 80.9707 37.68 80.1867C38.568 79.3783 39.016 78.3032 39.016 76.9937C39.016 75.6762 38.568 74.6253 37.688 73.8817C36.856 73.1784 35.632 72.8147 34.056 72.8147ZM19.416 22.5363C17.944 22.5363 16.768 22.8758 15.936 23.5548C15.048 24.2742 14.592 25.2685 14.592 26.4972C14.592 27.6773 15.072 28.6716 15.992 29.3587C16.848 29.9972 18 30.3206 19.416 30.3206C20.832 30.3206 21.984 29.9972 22.84 29.3587C23.752 28.6716 24.24 27.6854 24.24 26.4972C24.24 25.2604 23.792 24.2742 22.896 23.5548C22.064 22.8839 20.888 22.5363 19.416 22.5363Z" fill="#333333"/>
<path d="M132.712 69.3873C129.944 69.3873 127.856 68.5548 126.328 66.8411C124.8 65.1274 124.024 62.6701 124.024 59.5499V55.1283C124.024 53.4874 124.464 52.283 125.376 51.4343C126.288 50.5855 127.64 50.149 129.4 50.149C131.168 50.149 132.576 50.5855 133.576 51.4504C134.552 52.2911 135.024 53.447 135.024 54.9667C135.024 56.4378 134.608 57.5614 133.744 58.3859C132.888 59.2104 131.712 59.6308 130.544 59.655C129.952 59.6631 129.352 59.5742 128.792 59.3802C128.496 59.2751 127.728 58.7012 127.448 59.0164C127.392 59.0811 127.376 59.1781 127.36 59.2509C127.312 59.5823 127.384 59.9218 127.392 60.2613C127.44 61.8941 127.648 63.6158 128.744 64.893C129.64 65.9358 130.936 66.4693 132.616 66.4693C135.032 66.4693 136.936 65.4346 138.28 63.3976C139.552 61.4657 140.192 58.879 140.192 55.7265C140.192 51.8708 139.184 48.888 137.2 46.8672C135.216 44.8383 132.368 43.8117 128.752 43.8117C125.592 43.8117 123.072 44.5877 121.24 46.1316C119.368 47.7078 118.416 49.9308 118.416 52.7357V67.4958C118.416 68.1183 118.256 68.5709 117.936 68.8943C117.6 69.2176 117.12 69.3793 116.456 69.3793C115.792 69.3793 115.304 69.2095 114.952 68.87C114.608 68.5386 114.44 68.0859 114.44 67.4958V52.6953C114.44 50.2622 115.016 48.1443 116.144 46.3903C117.272 44.6362 118.904 43.2782 120.992 42.3486C123.12 41.4028 125.648 40.9178 128.496 40.9178C131.728 40.9178 134.56 41.5403 136.912 42.7528C139.232 43.9572 141.032 45.6789 142.256 47.8614C143.488 50.0601 144.112 52.6872 144.112 55.678C144.112 58.3213 143.624 60.722 142.656 62.8156C141.704 64.8849 140.352 66.5097 138.648 67.6575C136.952 68.8053 134.952 69.3873 132.712 69.3873ZM129.504 51.8384C128.384 51.8384 127.488 52.1052 126.864 52.6306C126.192 53.1964 125.848 54.0048 125.848 55.0313C125.848 56.2762 126.408 56.9875 126.88 57.3674C127.512 57.8686 128.392 58.1273 129.512 58.1273C130.592 58.1273 131.464 57.8767 132.104 57.3755C132.8 56.8339 133.168 56.0256 133.168 55.0313C133.168 54.0533 132.808 53.2368 132.128 52.6629C131.472 52.1133 130.592 51.8384 129.504 51.8384Z" fill="#333333"/>
<path d="M138.792 36.8277C138.64 36.8277 138.584 36.8115 138.584 36.8115L138.464 36.7792C135.256 36.3023 131.624 36.0598 127.656 36.0598C123.688 36.0598 120.072 36.3023 116.896 36.7792L116.824 36.7873L116.76 36.8115C116.752 36.8115 116.696 36.8196 116.56 36.8196C116.104 36.8196 115.72 36.6822 115.376 36.4154C115.08 36.181 114.952 35.9143 114.952 35.5505C114.952 34.9443 115.168 34.3542 115.6 33.7398C117.128 31.6543 118.928 30.0134 120.944 28.8737C122.936 27.7501 125.192 27.1762 127.656 27.1762C132.616 27.1762 136.56 29.3263 139.704 33.7398C140.184 34.3623 140.408 34.9523 140.408 35.5505C140.408 35.9143 140.28 36.181 139.984 36.4154C139.632 36.6903 139.24 36.8277 138.792 36.8277ZM128.648 34.0955C130.952 34.1278 133.256 34.3138 135.536 34.6533C135.856 34.7018 135.968 34.6371 136.112 34.3542C136.296 33.9904 136.776 33.5216 136.392 33.1498C135.312 32.0828 134.072 31.1532 132.696 30.5308C131.288 29.8922 129.592 29.5688 127.648 29.5688C125.736 29.5688 124.048 29.8922 122.632 30.5227C121.904 30.846 121.224 31.2583 120.576 31.7271C120.248 31.9615 119.928 32.2121 119.616 32.4708C119.328 32.7133 118.752 33.0204 118.76 33.465C118.76 33.5943 118.808 33.7237 118.856 33.8449C119.096 34.4108 119.264 34.7907 119.952 34.6856C120.744 34.5643 121.528 34.4593 122.32 34.3784C123.904 34.2087 125.496 34.1117 127.088 34.0874C127.616 34.0874 128.128 34.0874 128.648 34.0955Z" fill="#333333"/>
<path d="M156.384 49.2356L158.128 45.7112L156.384 43.0599L153.768 42.1788H151.152L148.528 44.8221L149.408 48.3545L152.024 50.1167L156.384 49.2356Z" fill="#66AB8C"/>
<path d="M56.528 60.625L58.928 59.0083L59.728 56.5833L58.128 54.1583L55.728 53.35H52.528L51.728 54.1583L50.128 56.5833L50.928 57.3917L52.528 59.8167L54.928 60.625H56.528Z" fill="#66AB8C"/>
<path d="M161.592 83.5332C159.8 83.5332 158.024 83.2098 156.312 82.5793C154.6 81.9408 153.064 81.0435 151.752 79.9038C151.336 79.5319 151.136 79.152 151.136 78.7559C151.136 78.4326 151.248 78.1335 151.472 77.8425C152.016 77.1473 152.44 77.1473 152.584 77.1473C152.904 77.1473 153.208 77.2686 153.536 77.5273C156.088 79.6128 158.72 80.6717 161.352 80.6717C163.456 80.6717 165.096 80.1058 166.224 78.9823C167.36 77.8587 167.936 76.2178 167.936 74.1242L167.92 67.8273L166.784 68.3688C165.104 69.1691 163.152 69.5733 160.96 69.5733C157.6 69.5733 154.904 68.8053 152.952 67.2938C151.032 65.8145 150.104 63.8098 150.104 61.1666C150.104 59.9864 150.304 58.9841 150.696 58.1758C151.12 57.2947 151.76 56.26 152.592 55.096C153.208 54.2311 153.832 53.3338 154.176 52.2992C154.416 51.5798 154.504 50.8118 154.464 50.052C154.464 49.9712 154.448 49.8742 154.384 49.8257C154.28 49.7529 154.152 49.8338 154.048 49.9065C152.392 51.1675 150.08 50.8118 148.584 49.47C147.688 48.6698 147.256 47.5704 147.256 46.1235C147.256 44.7089 147.76 43.5853 148.8 42.68C149.872 41.7423 151.256 41.2897 153.032 41.2897C154.968 41.2897 156.464 41.7747 157.464 42.7285C158.464 43.6823 158.96 44.9272 158.96 46.5196C158.96 48.4596 158.728 50.0843 158.264 51.3453C157.784 52.6468 157.104 54.0128 156.248 55.4032C155.56 56.5833 155.056 57.5614 154.744 58.3132C154.408 59.1296 154.232 60.0915 154.232 61.1666C154.232 62.7913 154.864 64.1413 156.12 65.184C157.32 66.1944 158.952 66.7037 160.968 66.7037C163.032 66.7037 164.712 66.0974 165.976 64.9011C167.248 63.6886 167.896 62.1447 167.896 60.3098V43.1408C167.896 42.5345 168.056 42.0818 168.392 41.7666C168.736 41.4352 169.232 41.2816 169.888 41.2816C170.552 41.2816 171.056 41.4433 171.416 41.7828C171.76 42.098 171.928 42.5426 171.928 43.1488V57.133L171.976 74.1323C171.976 77.1716 171.096 79.443 169.28 81.0758C167.44 82.7006 164.864 83.5332 161.592 83.5332ZM153.072 42.7366C151.84 42.7366 150.88 43.0438 150.216 43.65C149.528 44.2805 149.176 45.1212 149.176 46.1639C149.176 47.3845 149.68 49.4377 153.064 49.4377C154.272 49.4377 155.224 49.1709 155.896 48.6374C156.4 48.2413 157 47.4896 157 46.1639C157 45.1616 156.64 44.3209 155.944 43.6743C155.264 43.0518 154.296 42.7366 153.072 42.7366Z" fill="#333333"/>
<path d="M66.84 69.6541C66.184 69.6541 65.704 69.5005 65.376 69.1772C65.056 68.8619 64.896 68.4093 64.896 67.7868V53.8997C64.896 50.9008 64.056 48.5081 62.4 46.7783C60.736 45.0403 58.416 44.1593 55.504 44.1593C52.616 44.1593 50.304 44.9353 48.648 46.463C47.152 47.8453 46.456 49.8257 46.184 51.8061C46.032 52.9458 45.248 56.8178 46.912 57.2138C47.208 57.2866 47.528 57.1653 47.768 56.9713C48.008 56.7773 48.184 56.5187 48.376 56.2762C49.688 54.5463 51.576 52.9782 53.688 52.4043C55.896 51.798 58.536 52.4366 59.808 54.3523C60.8 55.8397 60.784 57.9252 59.824 59.4287C58.864 60.9322 57.024 61.8052 55.256 61.6354C54.12 61.5303 53.04 61.013 52.208 60.237C51.544 59.6227 51 57.8201 50.016 57.8524C49.552 57.8686 49.128 58.1353 48.776 58.4425C47.624 59.4368 46.88 60.8594 46.496 62.3468C46.12 63.8341 46.08 65.3861 46.168 66.9219C46.208 67.609 46.248 68.3688 45.84 68.9185C45.44 69.4601 44.712 69.646 44.04 69.6298C43.4 69.6137 42.704 69.3954 42.384 68.8296C42.168 68.4578 42.16 67.997 42.16 67.5686C42.144 64.0362 42.168 60.5038 42.176 56.9794C42.184 54.2392 42.2 51.4423 43.04 48.8395C44.8 43.3913 50.216 41.2816 55.504 41.2816C59.704 41.2816 63.016 42.4052 65.352 44.62C67.672 46.8187 68.848 49.9469 68.848 53.8997V67.7788C68.848 68.3931 68.688 68.8458 68.352 69.1529C67.992 69.4924 67.504 69.6541 66.84 69.6541ZM55.248 53.7461C54.192 53.7461 53.344 54.0128 52.728 54.5463C52.08 55.1041 51.752 55.9124 51.752 56.9228C51.752 57.9171 52.088 58.6931 52.744 59.2428C53.352 59.752 54.2 60.0026 55.248 60.0026C56.296 60.0026 57.144 59.752 57.768 59.2508C58.24 58.8709 58.792 58.1677 58.792 56.9228C58.792 55.9043 58.448 55.096 57.776 54.5302C57.152 54.0128 56.304 53.7461 55.248 53.7461Z" fill="#333333"/>
<path d="M91.184 69.6298C90.84 69.6298 90.488 69.6137 90.144 69.5975C87.016 69.4035 84.56 68.5224 82.864 66.9947C80.928 65.2487 79.984 62.8237 79.984 59.5823L80.04 41.516C80.04 40.8532 80.224 40.3682 80.6 40.0287C81 39.6649 81.544 39.4871 82.256 39.4871C82.968 39.4871 83.504 39.6568 83.88 40.0206C84.24 40.3601 84.416 40.8532 84.416 41.516L84.36 59.5823C84.36 61.7971 84.968 63.5188 86.16 64.7071C87.112 65.6528 88.296 66.057 89.216 66.2995C89.648 66.4127 90.104 66.4693 90.688 66.4693C90.912 66.4693 91.144 66.4612 91.368 66.4531C91.576 66.445 91.792 66.4369 92 66.4369C92.208 66.4369 92.424 66.445 92.632 66.4693C92.936 66.5016 93.248 66.6956 93.528 67.0108C93.768 67.2857 93.968 67.6413 94.072 67.9889C94.192 68.3769 94.144 68.773 93.952 69.0074C93.776 69.2257 93.432 69.3793 92.896 69.4843C92.384 69.5813 91.824 69.6298 91.184 69.6298Z" fill="#333333"/>
<path d="M193.328 59.8167L194.928 56.5833L193.328 54.1583L190.928 53.35H188.528L186.128 55.775L186.928 59.0083L189.328 60.625L193.328 59.8167Z" fill="#FEF7C0"/>
<path d="M107.712 69.6298C107.368 69.6298 107.016 69.6137 106.672 69.5975C103.544 69.4035 101.088 68.5224 99.392 66.9947C97.456 65.2487 96.512 62.8237 96.512 59.5823L96.568 41.516C96.568 40.8532 96.752 40.3682 97.128 40.0287C97.528 39.6649 98.072 39.4871 98.784 39.4871C99.496 39.4871 100.032 39.6568 100.408 40.0206C100.768 40.3601 100.944 40.8532 100.944 41.516L100.888 59.5823C100.888 61.7971 101.496 63.5188 102.688 64.7071C103.64 65.6528 104.824 66.057 105.744 66.2995C106.176 66.4127 106.632 66.4693 107.216 66.4693C107.44 66.4693 107.672 66.4612 107.896 66.4531C108.104 66.445 108.32 66.4369 108.528 66.4369C108.736 66.4369 108.952 66.445 109.16 66.4693C109.464 66.5016 109.776 66.6956 110.056 67.0108C110.296 67.2857 110.496 67.6413 110.6 67.9889C110.712 68.3769 110.664 68.773 110.48 69.0074C110.304 69.2257 109.96 69.3793 109.424 69.4843C108.912 69.5813 108.352 69.6298 107.712 69.6298Z" fill="#333333"/>
<path d="M201.976 83.614C201.32 83.614 200.84 83.4604 200.512 83.1371C200.192 82.8218 200.032 82.3692 200.032 81.7468V53.8997C200.032 50.9008 199.192 48.5081 197.536 46.7783C195.872 45.0403 193.552 44.1593 190.64 44.1593C187.752 44.1593 185.44 44.9353 183.784 46.463C182.128 47.9908 181.448 50.2541 181.24 52.4447C181.136 53.5278 181.2 54.5948 181.208 55.678C181.216 56.5833 181.912 57.8848 182.92 57.036C183.16 56.8339 183.328 56.5672 183.512 56.3166C185.216 53.9158 188.104 51.9031 191.144 52.1941C192.776 52.3477 194.36 53.253 195.168 54.6918C196.008 56.1953 195.872 58.1838 194.896 59.5984C193.912 61.013 192.144 61.8052 190.448 61.6597C188.744 61.5142 187.168 60.431 186.304 58.9518C186.104 58.6042 185.928 58.2162 185.608 57.9656C184.448 57.0522 183.024 59.3802 182.536 60.1804C181.336 62.1689 181.208 64.5131 181.312 66.7845C181.352 67.5928 181.384 68.5063 180.832 69.0963C180.384 69.5894 179.656 69.7107 178.992 69.6379C178.48 69.5813 177.944 69.4116 177.64 68.9993C177.32 68.5709 177.304 67.9889 177.304 67.4554C177.304 62.9368 177.304 58.4263 177.304 53.9078C177.304 49.955 178.48 46.8268 180.8 44.6281C183.136 42.4133 186.448 41.2897 190.648 41.2897C194.848 41.2897 198.16 42.4133 200.496 44.6281C202.816 46.8268 203.992 49.955 203.992 53.9078V81.7548C203.992 82.3692 203.832 82.8218 203.496 83.129C203.128 83.4523 202.64 83.614 201.976 83.614ZM190.384 53.7461C189.328 53.7461 188.48 54.0128 187.864 54.5463C187.216 55.1122 186.888 55.9124 186.888 56.9309C186.888 57.9252 187.224 58.7012 187.88 59.2508C188.488 59.7601 189.336 60.0107 190.384 60.0107C191.432 60.0107 192.28 59.7601 192.904 59.2589C193.376 58.8871 193.936 58.1758 193.936 56.9309C193.936 55.9124 193.592 55.1041 192.92 54.5383C192.288 54.0128 191.44 53.7461 190.384 53.7461Z" fill="#333333"/>
<path d="M106.736 48.2171C106.328 47.9261 105.744 47.7806 104.952 47.7806C103.872 47.7806 102.792 47.7887 101.712 47.7887C99.312 47.7968 96.912 47.7968 94.512 47.8048C92.056 47.8129 89.6 47.8129 87.152 47.821C85.104 47.8291 83.048 47.8453 81.016 47.6028C79.2 47.3926 77.32 47.0612 75.752 45.9861C74.6 45.1939 73.64 44.0703 73.056 42.7204C72.808 42.1627 72.616 41.322 72.144 40.934C71.976 40.7966 71.728 40.7643 71.584 40.9744C71.512 41.0795 71.488 41.2088 71.464 41.3382C71.072 43.5692 71.784 45.9538 73.16 47.6593C75.44 50.4966 78.984 51.1998 82.264 51.3292C82.536 51.3373 82.8 51.3453 83.072 51.3453C83.176 51.3453 83.28 51.3453 83.392 51.3453L104.968 51.3049C105.76 51.3049 106.336 51.1594 106.744 50.8603C107.176 50.537 107.392 50.1005 107.392 49.5266C107.368 48.9527 107.16 48.5243 106.736 48.2171Z" fill="#333333"/>
</svg>
